<svg width="100" height="100" viewBox="0 0 100 100" fill="none" xmlns="http://www.w3.org/2000/svg">
<rect width="100" height="100" rx="50" fill="#4B5548"/>
<path d="M14.8521 53.816H18.7561V55H13.3961V43.848H14.8521V53.816ZM28.1263 43.848V50.904C28.1263 51.896 28.3663 52.632 28.8463 53.112C29.337 53.592 30.0143 53.832 30.8783 53.832C31.7316 53.832 32.3983 53.592 32.8783 53.112C33.369 52.632 33.6143 51.896 33.6143 50.904V43.848H35.0703V50.888C35.0703 51.816 34.8836 52.6 34.5103 53.24C34.137 53.8693 33.6303 54.3387 32.9903 54.648C32.361 54.9573 31.6516 55.112 30.8623 55.112C30.073 55.112 29.3583 54.9573 28.7183 54.648C28.089 54.3387 27.5876 53.8693 27.2143 53.24C26.8516 52.6 26.6703 51.816 26.6703 50.888V43.848H28.1263ZM55.2112 43.928V55H53.7552V46.744L50.0752 55H49.0512L45.3552 46.728V55H43.8992V43.928H45.4672L49.5632 53.08L53.6592 43.928H55.2112ZM65.5364 43.848V55H64.0804V43.848H65.5364ZM83.1859 55H81.7299L75.8739 46.12V55H74.4179V43.832H75.8739L81.7299 52.696V43.832H83.1859V55Z" fill="white"/>
</svg>
